<mxfile host="Electron" agent="Mozilla/5.0 (Windows NT 10.0; Win64; x64) AppleWebKit/537.36 (KHTML, like Gecko) draw.io/27.0.9 Chrome/134.0.6998.205 Electron/35.4.0 Safari/537.36" version="27.0.9">
  <diagram name="Страница — 1" id="czSJxoBG8e3vziPSl5HL">
    <mxGraphModel dx="1426" dy="841" grid="1" gridSize="10" guides="1" tooltips="1" connect="1" arrows="1" fold="1" page="1" pageScale="1" pageWidth="827" pageHeight="1169" math="0" shadow="0">
      <root>
        <mxCell id="0" />
        <mxCell id="1" parent="0" />
        <mxCell id="qkGWPTD8oXom4SQ6_oq9-17" value="&lt;h3 style=&quot;font-weight: var(--ds-font-weight-strong); font-size: calc(var(--ds-md-zoom)*16px); line-height: 1.5; margin: calc(var(--ds-md-zoom)*16px)0 calc(var(--ds-md-zoom)*12px)0; color: rgb(64, 64, 64); font-family: DeepSeek-CJK-patch, Inter, system-ui, -apple-system, BlinkMacSystemFont, &amp;quot;Segoe UI&amp;quot;, Roboto, &amp;quot;Noto Sans&amp;quot;, Ubuntu, Cantarell, &amp;quot;Helvetica Neue&amp;quot;, Oxygen, &amp;quot;Open Sans&amp;quot;, sans-serif; text-align: start;&quot;&gt;Модерация комментариев&lt;/h3&gt;" style="swimlane;html=1;childLayout=stackLayout;resizeParent=1;resizeParentMax=0;horizontal=1;startSize=20;horizontalStack=0;whiteSpace=wrap;" parent="1" vertex="1">
          <mxGeometry x="50" y="20" width="1500" height="710" as="geometry" />
        </mxCell>
        <mxCell id="qkGWPTD8oXom4SQ6_oq9-27" style="edgeStyle=orthogonalEdgeStyle;rounded=0;orthogonalLoop=1;jettySize=auto;html=1;exitX=1;exitY=0.5;exitDx=0;exitDy=0;exitPerimeter=0;entryX=0;entryY=0.5;entryDx=0;entryDy=0;entryPerimeter=0;" parent="qkGWPTD8oXom4SQ6_oq9-17" source="qkGWPTD8oXom4SQ6_oq9-24" target="2eWtPEc4iN5TOL6dSOOe-2" edge="1">
          <mxGeometry relative="1" as="geometry">
            <mxPoint x="810" y="529.9999999999998" as="targetPoint" />
          </mxGeometry>
        </mxCell>
        <mxCell id="qkGWPTD8oXom4SQ6_oq9-29" style="edgeStyle=orthogonalEdgeStyle;rounded=0;orthogonalLoop=1;jettySize=auto;html=1;exitX=0.5;exitY=1;exitDx=0;exitDy=0;exitPerimeter=0;entryX=0.5;entryY=0;entryDx=0;entryDy=0;entryPerimeter=0;" parent="qkGWPTD8oXom4SQ6_oq9-17" source="qkGWPTD8oXom4SQ6_oq9-24" target="qkGWPTD8oXom4SQ6_oq9-31" edge="1">
          <mxGeometry relative="1" as="geometry">
            <mxPoint x="521" y="519.9999999999998" as="targetPoint" />
          </mxGeometry>
        </mxCell>
        <mxCell id="qkGWPTD8oXom4SQ6_oq9-18" value="Пользователь" style="swimlane;html=1;startSize=20;horizontal=0;" parent="qkGWPTD8oXom4SQ6_oq9-17" vertex="1">
          <mxGeometry y="20" width="1500" height="190" as="geometry" />
        </mxCell>
        <mxCell id="qkGWPTD8oXom4SQ6_oq9-19" value="Пользователь&lt;div&gt;оставляет&lt;div&gt;комментарий&lt;/div&gt;&lt;/div&gt;" style="points=[[0.145,0.145,0],[0.5,0,0],[0.855,0.145,0],[1,0.5,0],[0.855,0.855,0],[0.5,1,0],[0.145,0.855,0],[0,0.5,0]];shape=mxgraph.bpmn.event;html=1;verticalLabelPosition=bottom;labelBackgroundColor=#ffffff;verticalAlign=top;align=center;perimeter=ellipsePerimeter;outlineConnect=0;aspect=fixed;outline=standard;symbol=general;fillColor=#d5e8d4;strokeColor=#82b366;" parent="qkGWPTD8oXom4SQ6_oq9-18" vertex="1">
          <mxGeometry x="70" y="25" width="50" height="50" as="geometry" />
        </mxCell>
        <mxCell id="qkGWPTD8oXom4SQ6_oq9-69" style="edgeStyle=orthogonalEdgeStyle;rounded=0;orthogonalLoop=1;jettySize=auto;html=1;exitX=1;exitY=0.5;exitDx=0;exitDy=0;exitPerimeter=0;" parent="qkGWPTD8oXom4SQ6_oq9-18" source="qkGWPTD8oXom4SQ6_oq9-67" target="qkGWPTD8oXom4SQ6_oq9-68" edge="1">
          <mxGeometry relative="1" as="geometry" />
        </mxCell>
        <mxCell id="qkGWPTD8oXom4SQ6_oq9-67" value="&lt;div style=&quot;&quot;&gt;&lt;span style=&quot;background-color: transparent;&quot;&gt;&lt;font style=&quot;font-size: 16.002px;&quot; face=&quot;DeepSeek-CJK-patch, Inter, system-ui, -apple-system, BlinkMacSystemFont, Segoe UI, Roboto, Noto Sans, Ubuntu, Cantarell, Helvetica Neue, Oxygen, Open Sans, sans-serif&quot; color=&quot;#404040&quot;&gt;Пользователь получает предупреждение или бан&lt;/font&gt;&lt;/span&gt;&lt;/div&gt;" style="points=[[0.25,0,0],[0.5,0,0],[0.75,0,0],[1,0.25,0],[1,0.5,0],[1,0.75,0],[0.75,1,0],[0.5,1,0],[0.25,1,0],[0,0.75,0],[0,0.5,0],[0,0.25,0]];shape=mxgraph.bpmn.task2;whiteSpace=wrap;rectStyle=rounded;size=10;html=1;container=1;expand=0;collapsible=0;taskMarker=abstract;align=center;" parent="qkGWPTD8oXom4SQ6_oq9-18" vertex="1">
          <mxGeometry x="750" y="30" width="170" height="80" as="geometry" />
        </mxCell>
        <mxCell id="qkGWPTD8oXom4SQ6_oq9-70" style="edgeStyle=orthogonalEdgeStyle;rounded=0;orthogonalLoop=1;jettySize=auto;html=1;exitX=1;exitY=0.5;exitDx=0;exitDy=0;exitPerimeter=0;entryX=0;entryY=0.5;entryDx=0;entryDy=0;entryPerimeter=0;" parent="qkGWPTD8oXom4SQ6_oq9-18" source="qkGWPTD8oXom4SQ6_oq9-68" target="qkGWPTD8oXom4SQ6_oq9-72" edge="1">
          <mxGeometry relative="1" as="geometry">
            <mxPoint x="1110" y="100" as="targetPoint" />
          </mxGeometry>
        </mxCell>
        <mxCell id="qkGWPTD8oXom4SQ6_oq9-68" value="Пользователь&lt;div&gt;обжалует решение&lt;/div&gt;" style="points=[[0.25,0.25,0],[0.5,0,0],[0.75,0.25,0],[1,0.5,0],[0.75,0.75,0],[0.5,1,0],[0.25,0.75,0],[0,0.5,0]];shape=mxgraph.bpmn.gateway2;html=1;verticalLabelPosition=bottom;labelBackgroundColor=#ffffff;verticalAlign=top;align=center;perimeter=rhombusPerimeter;outlineConnect=0;outline=none;symbol=none;fillColor=#fff2cc;strokeColor=#d6b656;" parent="qkGWPTD8oXom4SQ6_oq9-18" vertex="1">
          <mxGeometry x="950" y="75" width="50" height="50" as="geometry" />
        </mxCell>
        <mxCell id="qkGWPTD8oXom4SQ6_oq9-71" value="Нет" style="text;html=1;align=center;verticalAlign=middle;whiteSpace=wrap;rounded=0;" parent="qkGWPTD8oXom4SQ6_oq9-18" vertex="1">
          <mxGeometry x="1010" y="75" width="60" height="30" as="geometry" />
        </mxCell>
        <mxCell id="qkGWPTD8oXom4SQ6_oq9-72" value="" style="points=[[0.145,0.145,0],[0.5,0,0],[0.855,0.145,0],[1,0.5,0],[0.855,0.855,0],[0.5,1,0],[0.145,0.855,0],[0,0.5,0]];shape=mxgraph.bpmn.event;html=1;verticalLabelPosition=bottom;labelBackgroundColor=#ffffff;verticalAlign=top;align=center;perimeter=ellipsePerimeter;outlineConnect=0;aspect=fixed;outline=end;symbol=terminate2;fillColor=#f8cecc;strokeColor=#b85450;" parent="qkGWPTD8oXom4SQ6_oq9-18" vertex="1">
          <mxGeometry x="1080" y="75" width="50" height="50" as="geometry" />
        </mxCell>
        <mxCell id="qkGWPTD8oXom4SQ6_oq9-90" value="Статус пользователя&lt;div&gt;не изменён&lt;/div&gt;" style="points=[[0.145,0.145,0],[0.5,0,0],[0.855,0.145,0],[1,0.5,0],[0.855,0.855,0],[0.5,1,0],[0.145,0.855,0],[0,0.5,0]];shape=mxgraph.bpmn.event;html=1;verticalLabelPosition=bottom;labelBackgroundColor=#ffffff;verticalAlign=top;align=center;perimeter=ellipsePerimeter;outlineConnect=0;aspect=fixed;outline=end;symbol=terminate2;fillColor=#f8cecc;strokeColor=#b85450;" parent="qkGWPTD8oXom4SQ6_oq9-18" vertex="1">
          <mxGeometry x="1220" y="70" width="50" height="50" as="geometry" />
        </mxCell>
        <mxCell id="qkGWPTD8oXom4SQ6_oq9-93" value="Пользователь оправдан" style="points=[[0.145,0.145,0],[0.5,0,0],[0.855,0.145,0],[1,0.5,0],[0.855,0.855,0],[0.5,1,0],[0.145,0.855,0],[0,0.5,0]];shape=mxgraph.bpmn.event;html=1;verticalLabelPosition=bottom;labelBackgroundColor=#ffffff;verticalAlign=top;align=center;perimeter=ellipsePerimeter;outlineConnect=0;aspect=fixed;outline=end;symbol=terminate2;fillColor=#f8cecc;strokeColor=#b85450;" parent="qkGWPTD8oXom4SQ6_oq9-18" vertex="1">
          <mxGeometry x="1360" y="75" width="50" height="50" as="geometry" />
        </mxCell>
        <mxCell id="qkGWPTD8oXom4SQ6_oq9-21" value="ML-классификатор" style="swimlane;html=1;startSize=20;horizontal=0;" parent="qkGWPTD8oXom4SQ6_oq9-17" vertex="1">
          <mxGeometry y="210" width="1500" height="230" as="geometry" />
        </mxCell>
        <mxCell id="qkGWPTD8oXom4SQ6_oq9-22" value="&lt;div style=&quot;&quot;&gt;&lt;span style=&quot;background-color: transparent; font-size: 16.002px;&quot;&gt;&lt;font face=&quot;DeepSeek-CJK-patch, Inter, system-ui, -apple-system, BlinkMacSystemFont, Segoe UI, Roboto, Noto Sans, Ubuntu, Cantarell, Helvetica Neue, Oxygen, Open Sans, sans-serif&quot; color=&quot;#404040&quot;&gt;Классификация&lt;/font&gt;&lt;/span&gt;&lt;/div&gt;&lt;div style=&quot;&quot;&gt;&lt;span style=&quot;background-color: transparent; font-size: 16.002px;&quot;&gt;&lt;font face=&quot;DeepSeek-CJK-patch, Inter, system-ui, -apple-system, BlinkMacSystemFont, Segoe UI, Roboto, Noto Sans, Ubuntu, Cantarell, Helvetica Neue, Oxygen, Open Sans, sans-serif&quot; color=&quot;#404040&quot;&gt;комеентария&lt;/font&gt;&lt;/span&gt;&lt;/div&gt;" style="points=[[0.25,0,0],[0.5,0,0],[0.75,0,0],[1,0.25,0],[1,0.5,0],[1,0.75,0],[0.75,1,0],[0.5,1,0],[0.25,1,0],[0,0.75,0],[0,0.5,0],[0,0.25,0]];shape=mxgraph.bpmn.task2;whiteSpace=wrap;rectStyle=rounded;size=10;html=1;container=1;expand=0;collapsible=0;taskMarker=abstract;align=center;" parent="qkGWPTD8oXom4SQ6_oq9-21" vertex="1">
          <mxGeometry x="174" y="20" width="190" height="80" as="geometry" />
        </mxCell>
        <mxCell id="qkGWPTD8oXom4SQ6_oq9-23" style="edgeStyle=orthogonalEdgeStyle;rounded=0;orthogonalLoop=1;jettySize=auto;html=1;entryX=0;entryY=0.5;entryDx=0;entryDy=0;entryPerimeter=0;exitX=1;exitY=0.5;exitDx=0;exitDy=0;exitPerimeter=0;" parent="qkGWPTD8oXom4SQ6_oq9-21" source="qkGWPTD8oXom4SQ6_oq9-22" target="qkGWPTD8oXom4SQ6_oq9-24" edge="1">
          <mxGeometry relative="1" as="geometry" />
        </mxCell>
        <mxCell id="qkGWPTD8oXom4SQ6_oq9-24" value="Комментарий недопустим" style="points=[[0.25,0.25,0],[0.5,0,0],[0.75,0.25,0],[1,0.5,0],[0.75,0.75,0],[0.5,1,0],[0.25,0.75,0],[0,0.5,0]];shape=mxgraph.bpmn.gateway2;html=1;verticalLabelPosition=bottom;labelBackgroundColor=#ffffff;verticalAlign=top;align=center;perimeter=rhombusPerimeter;outlineConnect=0;outline=none;symbol=none;fillColor=#fff2cc;strokeColor=#d6b656;" parent="qkGWPTD8oXom4SQ6_oq9-21" vertex="1">
          <mxGeometry x="480" y="85" width="50" height="50" as="geometry" />
        </mxCell>
        <mxCell id="qkGWPTD8oXom4SQ6_oq9-25" value="Да" style="text;html=1;align=center;verticalAlign=middle;whiteSpace=wrap;rounded=0;" parent="qkGWPTD8oXom4SQ6_oq9-21" vertex="1">
          <mxGeometry x="570" y="70" width="60" height="30" as="geometry" />
        </mxCell>
        <mxCell id="qkGWPTD8oXom4SQ6_oq9-63" value="Негативный комментарий" style="shape=mxgraph.bpmn.data2;labelPosition=center;verticalLabelPosition=bottom;align=center;verticalAlign=top;size=15;html=1;" parent="qkGWPTD8oXom4SQ6_oq9-21" vertex="1">
          <mxGeometry x="1070" y="40" width="40" height="60" as="geometry" />
        </mxCell>
        <mxCell id="qkGWPTD8oXom4SQ6_oq9-74" value="&lt;div style=&quot;text-align: left;&quot;&gt;&lt;span style=&quot;background-color: transparent; font-size: 16.002px;&quot;&gt;&lt;font face=&quot;DeepSeek-CJK-patch, Inter, system-ui, -apple-system, BlinkMacSystemFont, Segoe UI, Roboto, Noto Sans, Ubuntu, Cantarell, Helvetica Neue, Oxygen, Open Sans, sans-serif&quot; color=&quot;#404040&quot;&gt;Анализ комментария&lt;/font&gt;&lt;/span&gt;&lt;/div&gt;" style="points=[[0.25,0,0],[0.5,0,0],[0.75,0,0],[1,0.25,0],[1,0.5,0],[1,0.75,0],[0.75,1,0],[0.5,1,0],[0.25,1,0],[0,0.75,0],[0,0.5,0],[0,0.25,0]];shape=mxgraph.bpmn.task2;whiteSpace=wrap;rectStyle=rounded;size=10;html=1;container=1;expand=0;collapsible=0;taskMarker=abstract;" parent="qkGWPTD8oXom4SQ6_oq9-21" vertex="1">
          <mxGeometry x="174" y="135" width="190" height="80" as="geometry" />
        </mxCell>
        <mxCell id="qkGWPTD8oXom4SQ6_oq9-77" value="" style="points=[[0.25,0.25,0],[0.5,0,0],[0.75,0.25,0],[1,0.5,0],[0.75,0.75,0],[0.5,1,0],[0.25,0.75,0],[0,0.5,0]];shape=mxgraph.bpmn.gateway2;html=1;verticalLabelPosition=bottom;labelBackgroundColor=#ffffff;verticalAlign=top;align=center;perimeter=rhombusPerimeter;outlineConnect=0;outline=none;symbol=none;gwType=parallel;" parent="qkGWPTD8oXom4SQ6_oq9-21" vertex="1">
          <mxGeometry x="70" y="90" width="50" height="50" as="geometry" />
        </mxCell>
        <mxCell id="qkGWPTD8oXom4SQ6_oq9-78" style="edgeStyle=orthogonalEdgeStyle;rounded=0;orthogonalLoop=1;jettySize=auto;html=1;exitX=1;exitY=0.5;exitDx=0;exitDy=0;exitPerimeter=0;entryX=0;entryY=0.5;entryDx=0;entryDy=0;entryPerimeter=0;" parent="qkGWPTD8oXom4SQ6_oq9-21" source="qkGWPTD8oXom4SQ6_oq9-77" target="qkGWPTD8oXom4SQ6_oq9-22" edge="1">
          <mxGeometry relative="1" as="geometry" />
        </mxCell>
        <mxCell id="qkGWPTD8oXom4SQ6_oq9-79" style="edgeStyle=orthogonalEdgeStyle;rounded=0;orthogonalLoop=1;jettySize=auto;html=1;exitX=1;exitY=0.5;exitDx=0;exitDy=0;exitPerimeter=0;entryX=0;entryY=0.5;entryDx=0;entryDy=0;entryPerimeter=0;" parent="qkGWPTD8oXom4SQ6_oq9-21" source="qkGWPTD8oXom4SQ6_oq9-77" target="qkGWPTD8oXom4SQ6_oq9-74" edge="1">
          <mxGeometry relative="1" as="geometry" />
        </mxCell>
        <mxCell id="qkGWPTD8oXom4SQ6_oq9-81" style="edgeStyle=orthogonalEdgeStyle;rounded=0;orthogonalLoop=1;jettySize=auto;html=1;exitX=1;exitY=0.5;exitDx=0;exitDy=0;exitPerimeter=0;entryX=0;entryY=0.5;entryDx=0;entryDy=0;entryPerimeter=0;" parent="qkGWPTD8oXom4SQ6_oq9-21" source="qkGWPTD8oXom4SQ6_oq9-74" target="qkGWPTD8oXom4SQ6_oq9-24" edge="1">
          <mxGeometry relative="1" as="geometry" />
        </mxCell>
        <mxCell id="qkGWPTD8oXom4SQ6_oq9-94" value="Отчёт" style="shape=mxgraph.bpmn.data2;labelPosition=center;verticalLabelPosition=bottom;align=center;verticalAlign=top;size=15;html=1;" parent="qkGWPTD8oXom4SQ6_oq9-21" vertex="1">
          <mxGeometry x="30" y="145" width="40" height="60" as="geometry" />
        </mxCell>
        <mxCell id="qkGWPTD8oXom4SQ6_oq9-95" value="" style="edgeStyle=elbowEdgeStyle;fontSize=12;html=1;endFill=0;startFill=0;endSize=6;startSize=6;dashed=1;dashPattern=1 4;endArrow=openThin;startArrow=none;rounded=0;exitX=0;exitY=0.75;exitDx=0;exitDy=0;exitPerimeter=0;entryX=0;entryY=0;entryDx=40;entryDy=37.5;entryPerimeter=0;" parent="qkGWPTD8oXom4SQ6_oq9-21" source="qkGWPTD8oXom4SQ6_oq9-74" target="qkGWPTD8oXom4SQ6_oq9-94" edge="1">
          <mxGeometry width="160" relative="1" as="geometry">
            <mxPoint x="1070" y="200" as="sourcePoint" />
            <mxPoint x="140" y="190" as="targetPoint" />
          </mxGeometry>
        </mxCell>
        <mxCell id="qkGWPTD8oXom4SQ6_oq9-33" value="Нет" style="text;html=1;align=center;verticalAlign=middle;whiteSpace=wrap;rounded=0;" parent="qkGWPTD8oXom4SQ6_oq9-21" vertex="1">
          <mxGeometry x="450" y="190" width="60" height="30" as="geometry" />
        </mxCell>
        <mxCell id="qkGWPTD8oXom4SQ6_oq9-28" style="edgeStyle=orthogonalEdgeStyle;rounded=0;orthogonalLoop=1;jettySize=auto;html=1;exitX=1;exitY=0.5;exitDx=0;exitDy=0;exitPerimeter=0;entryX=0.5;entryY=1;entryDx=0;entryDy=0;entryPerimeter=0;" parent="qkGWPTD8oXom4SQ6_oq9-17" source="qkGWPTD8oXom4SQ6_oq9-32" target="qkGWPTD8oXom4SQ6_oq9-67" edge="1">
          <mxGeometry relative="1" as="geometry">
            <mxPoint x="785" y="160" as="targetPoint" />
            <Array as="points">
              <mxPoint x="800" y="500" />
              <mxPoint x="835" y="500" />
            </Array>
          </mxGeometry>
        </mxCell>
        <mxCell id="qkGWPTD8oXom4SQ6_oq9-80" style="edgeStyle=orthogonalEdgeStyle;rounded=0;orthogonalLoop=1;jettySize=auto;html=1;exitX=0.5;exitY=1;exitDx=0;exitDy=0;exitPerimeter=0;entryX=0.5;entryY=0;entryDx=0;entryDy=0;entryPerimeter=0;" parent="qkGWPTD8oXom4SQ6_oq9-17" source="qkGWPTD8oXom4SQ6_oq9-19" target="qkGWPTD8oXom4SQ6_oq9-77" edge="1">
          <mxGeometry relative="1" as="geometry" />
        </mxCell>
        <mxCell id="qkGWPTD8oXom4SQ6_oq9-30" value="Система" style="swimlane;html=1;startSize=20;horizontal=0;" parent="qkGWPTD8oXom4SQ6_oq9-17" vertex="1">
          <mxGeometry y="440" width="1500" height="270" as="geometry" />
        </mxCell>
        <mxCell id="qkGWPTD8oXom4SQ6_oq9-31" value="Комментарий сохраняется" style="points=[[0.145,0.145,0],[0.5,0,0],[0.855,0.145,0],[1,0.5,0],[0.855,0.855,0],[0.5,1,0],[0.145,0.855,0],[0,0.5,0]];shape=mxgraph.bpmn.event;html=1;verticalLabelPosition=bottom;labelBackgroundColor=#ffffff;verticalAlign=top;align=center;perimeter=ellipsePerimeter;outlineConnect=0;aspect=fixed;outline=end;symbol=terminate2;fillColor=#f8cecc;strokeColor=#b85450;" parent="qkGWPTD8oXom4SQ6_oq9-30" vertex="1">
          <mxGeometry x="430" y="110" width="50" height="50" as="geometry" />
        </mxCell>
        <mxCell id="qkGWPTD8oXom4SQ6_oq9-32" value="&lt;div style=&quot;text-align: left;&quot;&gt;&lt;span style=&quot;background-color: transparent; font-size: 16.002px;&quot;&gt;&lt;font face=&quot;DeepSeek-CJK-patch, Inter, system-ui, -apple-system, BlinkMacSystemFont, Segoe UI, Roboto, Noto Sans, Ubuntu, Cantarell, Helvetica Neue, Oxygen, Open Sans, sans-serif&quot; color=&quot;#404040&quot;&gt;Удаление комментария&lt;/font&gt;&lt;/span&gt;&lt;/div&gt;" style="points=[[0.25,0,0],[0.5,0,0],[0.75,0,0],[1,0.25,0],[1,0.5,0],[1,0.75,0],[0.75,1,0],[0.5,1,0],[0.25,1,0],[0,0.75,0],[0,0.5,0],[0,0.25,0]];shape=mxgraph.bpmn.task2;whiteSpace=wrap;rectStyle=rounded;size=10;html=1;container=1;expand=0;collapsible=0;taskMarker=abstract;" parent="qkGWPTD8oXom4SQ6_oq9-30" vertex="1">
          <mxGeometry x="620" y="10" width="190" height="80" as="geometry" />
        </mxCell>
        <mxCell id="2eWtPEc4iN5TOL6dSOOe-8" style="edgeStyle=orthogonalEdgeStyle;rounded=0;orthogonalLoop=1;jettySize=auto;html=1;exitX=1;exitY=0.5;exitDx=0;exitDy=0;exitPerimeter=0;entryX=0;entryY=0.5;entryDx=0;entryDy=0;" edge="1" parent="qkGWPTD8oXom4SQ6_oq9-30" source="2eWtPEc4iN5TOL6dSOOe-2" target="2eWtPEc4iN5TOL6dSOOe-7">
          <mxGeometry relative="1" as="geometry">
            <Array as="points">
              <mxPoint x="600" y="125" />
              <mxPoint x="600" y="193" />
            </Array>
          </mxGeometry>
        </mxCell>
        <mxCell id="2eWtPEc4iN5TOL6dSOOe-2" value="" style="points=[[0.25,0.25,0],[0.5,0,0],[0.75,0.25,0],[1,0.5,0],[0.75,0.75,0],[0.5,1,0],[0.25,0.75,0],[0,0.5,0]];shape=mxgraph.bpmn.gateway2;html=1;verticalLabelPosition=bottom;labelBackgroundColor=#ffffff;verticalAlign=top;align=center;perimeter=rhombusPerimeter;outlineConnect=0;outline=none;symbol=none;gwType=parallel;" vertex="1" parent="qkGWPTD8oXom4SQ6_oq9-30">
          <mxGeometry x="540" y="100" width="50" height="50" as="geometry" />
        </mxCell>
        <mxCell id="2eWtPEc4iN5TOL6dSOOe-3" style="edgeStyle=orthogonalEdgeStyle;rounded=0;orthogonalLoop=1;jettySize=auto;html=1;exitX=1;exitY=0.5;exitDx=0;exitDy=0;exitPerimeter=0;entryX=0;entryY=0.5;entryDx=0;entryDy=0;entryPerimeter=0;" edge="1" parent="qkGWPTD8oXom4SQ6_oq9-30" source="2eWtPEc4iN5TOL6dSOOe-2" target="qkGWPTD8oXom4SQ6_oq9-32">
          <mxGeometry relative="1" as="geometry">
            <Array as="points">
              <mxPoint x="600" y="125" />
              <mxPoint x="600" y="50" />
            </Array>
          </mxGeometry>
        </mxCell>
        <mxCell id="2eWtPEc4iN5TOL6dSOOe-7" value="&lt;font face=&quot;DeepSeek-CJK-patch, Inter, system-ui, -apple-system, BlinkMacSystemFont, Segoe UI, Roboto, Noto Sans, Ubuntu, Cantarell, Helvetica Neue, Oxygen, Open Sans, sans-serif&quot; color=&quot;#404040&quot;&gt;&lt;span style=&quot;font-size: 16.002px;&quot;&gt;Пометка для перепроверки&lt;/span&gt;&lt;/font&gt;" style="rounded=1;whiteSpace=wrap;html=1;" vertex="1" parent="qkGWPTD8oXom4SQ6_oq9-30">
          <mxGeometry x="630" y="150" width="210" height="85" as="geometry" />
        </mxCell>
        <mxCell id="qkGWPTD8oXom4SQ6_oq9-34" value="&lt;h3 style=&quot;font-weight: var(--ds-font-weight-strong); font-size: calc(var(--ds-md-zoom)*16px); line-height: 1.5; margin: calc(var(--ds-md-zoom)*16px)0 calc(var(--ds-md-zoom)*12px)0; color: rgb(64, 64, 64); font-family: DeepSeek-CJK-patch, Inter, system-ui, -apple-system, BlinkMacSystemFont, &amp;quot;Segoe UI&amp;quot;, Roboto, &amp;quot;Noto Sans&amp;quot;, Ubuntu, Cantarell, &amp;quot;Helvetica Neue&amp;quot;, Oxygen, &amp;quot;Open Sans&amp;quot;, sans-serif; text-align: start;&quot;&gt;Модерация комментариев&lt;/h3&gt;" style="swimlane;html=1;childLayout=stackLayout;resizeParent=1;resizeParentMax=0;horizontal=1;startSize=20;horizontalStack=0;whiteSpace=wrap;" parent="1" vertex="1">
          <mxGeometry x="180" y="1260" width="1280" height="400" as="geometry" />
        </mxCell>
        <mxCell id="qkGWPTD8oXom4SQ6_oq9-35" value="Аналитик" style="swimlane;html=1;startSize=20;horizontal=0;" parent="qkGWPTD8oXom4SQ6_oq9-34" vertex="1">
          <mxGeometry y="20" width="1280" height="190" as="geometry" />
        </mxCell>
        <mxCell id="qkGWPTD8oXom4SQ6_oq9-36" value="Запрашивает&lt;div&gt;промодерированные&lt;/div&gt;&lt;div&gt;комментарии&lt;/div&gt;" style="points=[[0.145,0.145,0],[0.5,0,0],[0.855,0.145,0],[1,0.5,0],[0.855,0.855,0],[0.5,1,0],[0.145,0.855,0],[0,0.5,0]];shape=mxgraph.bpmn.event;html=1;verticalLabelPosition=bottom;labelBackgroundColor=#ffffff;verticalAlign=top;align=center;perimeter=ellipsePerimeter;outlineConnect=0;aspect=fixed;outline=standard;symbol=general;fillColor=#d5e8d4;strokeColor=#82b366;" parent="qkGWPTD8oXom4SQ6_oq9-35" vertex="1">
          <mxGeometry x="70" y="70" width="50" height="50" as="geometry" />
        </mxCell>
        <mxCell id="qkGWPTD8oXom4SQ6_oq9-37" value="Сохраняют отчёт" style="points=[[0.145,0.145,0],[0.5,0,0],[0.855,0.145,0],[1,0.5,0],[0.855,0.855,0],[0.5,1,0],[0.145,0.855,0],[0,0.5,0]];shape=mxgraph.bpmn.event;html=1;verticalLabelPosition=bottom;labelBackgroundColor=#ffffff;verticalAlign=top;align=center;perimeter=ellipsePerimeter;outlineConnect=0;aspect=fixed;outline=end;symbol=terminate2;fillColor=#f8cecc;strokeColor=#b85450;" parent="qkGWPTD8oXom4SQ6_oq9-35" vertex="1">
          <mxGeometry x="920" y="85" width="50" height="50" as="geometry" />
        </mxCell>
        <mxCell id="qkGWPTD8oXom4SQ6_oq9-38" style="edgeStyle=orthogonalEdgeStyle;rounded=0;orthogonalLoop=1;jettySize=auto;html=1;entryX=0;entryY=0.5;entryDx=0;entryDy=0;entryPerimeter=0;" parent="qkGWPTD8oXom4SQ6_oq9-35" source="qkGWPTD8oXom4SQ6_oq9-39" target="qkGWPTD8oXom4SQ6_oq9-40" edge="1">
          <mxGeometry relative="1" as="geometry">
            <mxPoint x="620" y="110" as="targetPoint" />
          </mxGeometry>
        </mxCell>
        <mxCell id="qkGWPTD8oXom4SQ6_oq9-39" value="&lt;div style=&quot;text-align: left;&quot;&gt;&lt;font face=&quot;DeepSeek-CJK-patch, Inter, system-ui, -apple-system, BlinkMacSystemFont, Segoe UI, Roboto, Noto Sans, Ubuntu, Cantarell, Helvetica Neue, Oxygen, Open Sans, sans-serif&quot; color=&quot;#404040&quot;&gt;&lt;span style=&quot;font-size: 16.002px;&quot;&gt;Анализируют реакцию&lt;/span&gt;&lt;/font&gt;&lt;/div&gt;" style="points=[[0.25,0,0],[0.5,0,0],[0.75,0,0],[1,0.25,0],[1,0.5,0],[1,0.75,0],[0.75,1,0],[0.5,1,0],[0.25,1,0],[0,0.75,0],[0,0.5,0],[0,0.25,0]];shape=mxgraph.bpmn.task2;whiteSpace=wrap;rectStyle=rounded;size=10;html=1;container=1;expand=0;collapsible=0;taskMarker=abstract;" parent="qkGWPTD8oXom4SQ6_oq9-35" vertex="1">
          <mxGeometry x="320" y="70" width="220" height="80" as="geometry" />
        </mxCell>
        <mxCell id="qkGWPTD8oXom4SQ6_oq9-40" value="&lt;div style=&quot;text-align: left;&quot;&gt;&lt;font face=&quot;DeepSeek-CJK-patch, Inter, system-ui, -apple-system, BlinkMacSystemFont, Segoe UI, Roboto, Noto Sans, Ubuntu, Cantarell, Helvetica Neue, Oxygen, Open Sans, sans-serif&quot; color=&quot;#404040&quot;&gt;&lt;span style=&quot;font-size: 16.002px;&quot;&gt;Составляют отчёт&lt;/span&gt;&lt;/font&gt;&lt;/div&gt;" style="points=[[0.25,0,0],[0.5,0,0],[0.75,0,0],[1,0.25,0],[1,0.5,0],[1,0.75,0],[0.75,1,0],[0.5,1,0],[0.25,1,0],[0,0.75,0],[0,0.5,0],[0,0.25,0]];shape=mxgraph.bpmn.task2;whiteSpace=wrap;rectStyle=rounded;size=10;html=1;container=1;expand=0;collapsible=0;taskMarker=abstract;" parent="qkGWPTD8oXom4SQ6_oq9-35" vertex="1">
          <mxGeometry x="620" y="70" width="220" height="80" as="geometry" />
        </mxCell>
        <mxCell id="qkGWPTD8oXom4SQ6_oq9-41" style="edgeStyle=orthogonalEdgeStyle;rounded=0;orthogonalLoop=1;jettySize=auto;html=1;exitX=1;exitY=0.5;exitDx=0;exitDy=0;exitPerimeter=0;entryX=0;entryY=0.5;entryDx=0;entryDy=0;entryPerimeter=0;" parent="qkGWPTD8oXom4SQ6_oq9-35" source="qkGWPTD8oXom4SQ6_oq9-40" target="qkGWPTD8oXom4SQ6_oq9-37" edge="1">
          <mxGeometry relative="1" as="geometry" />
        </mxCell>
        <mxCell id="qkGWPTD8oXom4SQ6_oq9-42" style="edgeStyle=orthogonalEdgeStyle;rounded=0;orthogonalLoop=1;jettySize=auto;html=1;exitX=1;exitY=0.5;exitDx=0;exitDy=0;exitPerimeter=0;entryX=0;entryY=0.5;entryDx=0;entryDy=0;entryPerimeter=0;" parent="qkGWPTD8oXom4SQ6_oq9-34" source="qkGWPTD8oXom4SQ6_oq9-36" target="qkGWPTD8oXom4SQ6_oq9-44" edge="1">
          <mxGeometry relative="1" as="geometry" />
        </mxCell>
        <mxCell id="qkGWPTD8oXom4SQ6_oq9-43" value="Система" style="swimlane;html=1;startSize=20;horizontal=0;" parent="qkGWPTD8oXom4SQ6_oq9-34" vertex="1">
          <mxGeometry y="210" width="1280" height="190" as="geometry" />
        </mxCell>
        <mxCell id="qkGWPTD8oXom4SQ6_oq9-44" value="&lt;div style=&quot;&quot;&gt;&lt;span style=&quot;background-color: transparent; font-size: 16.002px;&quot;&gt;&lt;font face=&quot;DeepSeek-CJK-patch, Inter, system-ui, -apple-system, BlinkMacSystemFont, Segoe UI, Roboto, Noto Sans, Ubuntu, Cantarell, Helvetica Neue, Oxygen, Open Sans, sans-serif&quot; color=&quot;#404040&quot;&gt;Собирает автоматизированный отчёт&lt;br&gt;&lt;/font&gt;&lt;/span&gt;&lt;/div&gt;" style="points=[[0.25,0,0],[0.5,0,0],[0.75,0,0],[1,0.25,0],[1,0.5,0],[1,0.75,0],[0.75,1,0],[0.5,1,0],[0.25,1,0],[0,0.75,0],[0,0.5,0],[0,0.25,0]];shape=mxgraph.bpmn.task2;whiteSpace=wrap;rectStyle=rounded;size=10;html=1;container=1;expand=0;collapsible=0;taskMarker=abstract;" parent="qkGWPTD8oXom4SQ6_oq9-43" vertex="1">
          <mxGeometry x="170" y="70" width="190" height="80" as="geometry" />
        </mxCell>
        <mxCell id="qkGWPTD8oXom4SQ6_oq9-45" value="Отчёт с комментариями&lt;div&gt;и выделеными&lt;/div&gt;&lt;div&gt;ключевыми словами&lt;/div&gt;" style="shape=mxgraph.bpmn.data2;labelPosition=center;verticalLabelPosition=bottom;align=center;verticalAlign=top;size=15;html=1;" parent="qkGWPTD8oXom4SQ6_oq9-43" vertex="1">
          <mxGeometry x="490" y="10" width="40" height="60" as="geometry" />
        </mxCell>
        <mxCell id="qkGWPTD8oXom4SQ6_oq9-46" style="edgeStyle=orthogonalEdgeStyle;rounded=0;orthogonalLoop=1;jettySize=auto;html=1;exitX=1;exitY=0.5;exitDx=0;exitDy=0;exitPerimeter=0;entryX=0.5;entryY=1;entryDx=0;entryDy=0;entryPerimeter=0;" parent="qkGWPTD8oXom4SQ6_oq9-34" source="qkGWPTD8oXom4SQ6_oq9-44" target="qkGWPTD8oXom4SQ6_oq9-39" edge="1">
          <mxGeometry relative="1" as="geometry">
            <mxPoint x="470" y="320" as="targetPoint" />
          </mxGeometry>
        </mxCell>
        <mxCell id="qkGWPTD8oXom4SQ6_oq9-47" value="" style="edgeStyle=elbowEdgeStyle;fontSize=12;html=1;endFill=0;startFill=0;endSize=6;startSize=6;dashed=1;dashPattern=1 4;endArrow=openThin;startArrow=none;rounded=0;exitX=0;exitY=0.5;exitDx=0;exitDy=0;exitPerimeter=0;" parent="1" source="qkGWPTD8oXom4SQ6_oq9-45" edge="1">
          <mxGeometry width="160" relative="1" as="geometry">
            <mxPoint x="440" y="1460" as="sourcePoint" />
            <mxPoint x="610" y="1510" as="targetPoint" />
          </mxGeometry>
        </mxCell>
        <mxCell id="qkGWPTD8oXom4SQ6_oq9-58" value="&#xa;&lt;span style=&quot;color: rgb(0, 0, 0); font-family: Helvetica; font-size: 12px; font-style: normal; font-variant-ligatures: normal; font-variant-caps: normal; font-weight: 400; letter-spacing: normal; orphans: 2; text-align: center; text-indent: 0px; text-transform: none; widows: 2; word-spacing: 0px; -webkit-text-stroke-width: 0px; white-space: nowrap; background-color: rgb(255, 255, 255); text-decoration-thickness: initial; text-decoration-style: initial; text-decoration-color: initial; display: inline !important; float: none;&quot;&gt;Комментарий недопустим&lt;/span&gt;&#xa;&#xa;" style="swimlane;html=1;startSize=20;horizontal=0;" parent="1" vertex="1">
          <mxGeometry x="50" y="730" width="1500" height="230" as="geometry" />
        </mxCell>
        <mxCell id="qkGWPTD8oXom4SQ6_oq9-66" value="&lt;font face=&quot;DeepSeek-CJK-patch, Inter, system-ui, -apple-system, BlinkMacSystemFont, Segoe UI, Roboto, Noto Sans, Ubuntu, Cantarell, Helvetica Neue, Oxygen, Open Sans, sans-serif&quot; color=&quot;#404040&quot;&gt;&lt;span style=&quot;font-size: 16.002px;&quot;&gt;Модератор просматривает комментарий&lt;/span&gt;&lt;/font&gt;" style="rounded=1;whiteSpace=wrap;html=1;" parent="qkGWPTD8oXom4SQ6_oq9-58" vertex="1">
          <mxGeometry x="870" y="55" width="210" height="85" as="geometry" />
        </mxCell>
        <mxCell id="qkGWPTD8oXom4SQ6_oq9-84" style="edgeStyle=orthogonalEdgeStyle;rounded=0;orthogonalLoop=1;jettySize=auto;html=1;exitX=1;exitY=0.5;exitDx=0;exitDy=0;exitPerimeter=0;" parent="qkGWPTD8oXom4SQ6_oq9-58" source="qkGWPTD8oXom4SQ6_oq9-82" edge="1">
          <mxGeometry relative="1" as="geometry">
            <mxPoint x="1250" y="-540" as="targetPoint" />
          </mxGeometry>
        </mxCell>
        <mxCell id="qkGWPTD8oXom4SQ6_oq9-82" value="Комментарий недопустим" style="points=[[0.25,0.25,0],[0.5,0,0],[0.75,0.25,0],[1,0.5,0],[0.75,0.75,0],[0.5,1,0],[0.25,0.75,0],[0,0.5,0]];shape=mxgraph.bpmn.gateway2;html=1;verticalLabelPosition=bottom;labelBackgroundColor=#ffffff;verticalAlign=top;align=center;perimeter=rhombusPerimeter;outlineConnect=0;outline=none;symbol=none;fillColor=#fff2cc;strokeColor=#d6b656;" parent="qkGWPTD8oXom4SQ6_oq9-58" vertex="1">
          <mxGeometry x="1141" y="82.5" width="50" height="50" as="geometry" />
        </mxCell>
        <mxCell id="qkGWPTD8oXom4SQ6_oq9-83" style="edgeStyle=orthogonalEdgeStyle;rounded=0;orthogonalLoop=1;jettySize=auto;html=1;exitX=1;exitY=0.5;exitDx=0;exitDy=0;entryX=0;entryY=0.5;entryDx=0;entryDy=0;entryPerimeter=0;" parent="qkGWPTD8oXom4SQ6_oq9-58" source="qkGWPTD8oXom4SQ6_oq9-66" target="qkGWPTD8oXom4SQ6_oq9-82" edge="1">
          <mxGeometry relative="1" as="geometry" />
        </mxCell>
        <mxCell id="qkGWPTD8oXom4SQ6_oq9-88" value="Да" style="text;html=1;align=center;verticalAlign=middle;whiteSpace=wrap;rounded=0;" parent="qkGWPTD8oXom4SQ6_oq9-58" vertex="1">
          <mxGeometry x="1191" y="82.5" width="60" height="30" as="geometry" />
        </mxCell>
        <mxCell id="qkGWPTD8oXom4SQ6_oq9-64" value="" style="edgeStyle=elbowEdgeStyle;fontSize=12;html=1;endFill=0;startFill=0;endSize=6;startSize=6;dashed=1;dashPattern=1 4;endArrow=openThin;startArrow=none;rounded=0;exitX=0;exitY=0.5;exitDx=0;exitDy=0;exitPerimeter=0;" parent="1" source="qkGWPTD8oXom4SQ6_oq9-63" edge="1">
          <mxGeometry width="160" relative="1" as="geometry">
            <mxPoint x="990" y="790" as="sourcePoint" />
            <mxPoint x="1030" y="300" as="targetPoint" />
          </mxGeometry>
        </mxCell>
        <mxCell id="qkGWPTD8oXom4SQ6_oq9-73" style="edgeStyle=orthogonalEdgeStyle;rounded=0;orthogonalLoop=1;jettySize=auto;html=1;exitX=0.5;exitY=1;exitDx=0;exitDy=0;exitPerimeter=0;entryX=0.5;entryY=0;entryDx=0;entryDy=0;" parent="1" source="qkGWPTD8oXom4SQ6_oq9-68" target="qkGWPTD8oXom4SQ6_oq9-66" edge="1">
          <mxGeometry relative="1" as="geometry" />
        </mxCell>
        <mxCell id="qkGWPTD8oXom4SQ6_oq9-91" style="edgeStyle=orthogonalEdgeStyle;rounded=0;orthogonalLoop=1;jettySize=auto;html=1;exitX=0.5;exitY=1;exitDx=0;exitDy=0;exitPerimeter=0;entryX=0.5;entryY=1;entryDx=0;entryDy=0;entryPerimeter=0;" parent="1" source="qkGWPTD8oXom4SQ6_oq9-82" target="qkGWPTD8oXom4SQ6_oq9-93" edge="1">
          <mxGeometry relative="1" as="geometry">
            <mxPoint x="1479.9999999999995" y="910" as="targetPoint" />
            <Array as="points">
              <mxPoint x="1216" y="900" />
              <mxPoint x="1435" y="900" />
            </Array>
          </mxGeometry>
        </mxCell>
        <mxCell id="2eWtPEc4iN5TOL6dSOOe-9" style="edgeStyle=orthogonalEdgeStyle;rounded=0;orthogonalLoop=1;jettySize=auto;html=1;exitX=1;exitY=0.5;exitDx=0;exitDy=0;entryX=0;entryY=0.5;entryDx=0;entryDy=0;" edge="1" parent="1" source="2eWtPEc4iN5TOL6dSOOe-7" target="qkGWPTD8oXom4SQ6_oq9-66">
          <mxGeometry relative="1" as="geometry">
            <Array as="points">
              <mxPoint x="900" y="653" />
              <mxPoint x="900" y="828" />
            </Array>
          </mxGeometry>
        </mxCell>
      </root>
    </mxGraphModel>
  </diagram>
</mxfile>
